PathFileType	4	(X/Y/Z)	./resultDataOpenSim/trcMotMarkerGrf/sub09/qtm-01-05.trc
DataRate	CameraRate	NumFrames	NumMarkers	Units	OrigDataRate	OrigDataStartFrame	OrigNumFrames
250.000000	250.000000	7	24	m	250.000000	1	465
Frame#	Time	L.Toe.Tip			R.Toe.Tip			L.Ankle.Lat			R.Ankle.Lat			L.Ankle.Med			R.Ankle.Med			L.Heel			R.Heel			L.Knee.Lat			R.Knee.Lat			L.Knee.Med			R.Knee.Med			L.Thigh.Upper			R.Thigh.Upper			L.ASIS			R.ASIS			V.Sacral			L.Acromium			R.Acromium			C7			L.Elbow			R.Elbow			L.Wrist.Lat			R.Wrist.Lat
		X1	Y1	Z1	X2	Y2	Z2	X3	Y3	Z3	X4	Y4	Z4	X5	Y5	Z5	X6	Y6	Z6	X7	Y7	Z7	X8	Y8	Z8	X9	Y9	Z9	X10	Y10	Z10	X11	Y11	Z11	X12	Y12	Z12	X13	Y13	Z13	X14	Y14	Z14	X15	Y15	Z15	X16	Y16	Z16	X17	Y17	Z17	X18	Y18	Z18	X19	Y19	Z19	X20	Y20	Z20	X21	Y21	Z21	X22	Y22	Z22	X23	Y23	Z23	X24	Y24	Z24

1	0	-1.4667744	0.036916956	-0.00093529669	-0.92010323	0.086098252	0.11063629	-1.6146252	0.073313376	-0.04397906	-1.0717514	0.068079756	0.14037545	-1.5971254	0.092183311	0.05147948	-1.0638047	0.10872897	0.050823835	NaN	NaN	NaN	-1.1237744	0.031399575	0.084801146	-1.4745889	0.46796648	-0.10195708	-1.1398018	0.52151666	0.19109432	-1.4768894	0.47028232	0.02329534	-1.1374024	0.50455216	0.062785153	-1.3738176	0.87882912	-0.14344996	-1.3432127	0.87317544	0.22583208	-1.2688413	0.95069087	-0.090020484	-1.2626225	0.95501258	0.14945398	-1.4269837	1.0175495	0.035175011	-1.2212396	1.3976331	-0.13423025	-1.2583124	1.4178543	0.19265542	-1.3003221	1.4635603	0.028810657	-1.3433174	1.0424356	-0.2062055	-1.4395861	1.1014621	0.28693067	-1.1149004	0.89488454	-0.18104638	-1.3195628	0.85761341	0.3167448
2	0.004	-1.4666899	0.036837075	-0.00092025012	-0.90324034	0.089598745	0.11092881	-1.6144985	0.073774738	-0.043556166	-1.0544657	0.068364675	0.1400323	-1.5954371	0.093009123	0.051393915	-1.0469605	0.10928412	0.050490274	NaN	NaN	NaN	-1.1056143	0.030673949	0.083855917	-1.4717107	0.46751422	-0.10198896	-1.1360876	0.51965307	0.18983421	-1.4746429	0.46992917	0.023383494	-1.1302754	0.50333402	0.06236759	-1.3679296	0.87739359	-0.14341046	-1.3373061	0.87136495	0.22589515	-1.2627083	0.94911247	-0.089875433	-1.2565935	0.95319978	0.14965166	-1.4209196	1.015723	0.035462462	-1.2153484	1.3960757	-0.13382591	-1.2529822	1.4162005	0.19311051	-1.2946041	1.4619171	0.029099788	-1.3366581	1.0399277	-0.20713163	-1.4335447	1.0995649	0.28684314	-1.1071856	0.89425221	-0.18030532	-1.3136101	0.8558622	0.31708771
3	0.008	-1.466596	0.036757228	-0.00090697947	-0.88653021	0.093236516	0.11126831	-1.6143598	0.074277796	-0.043107627	-1.0374681	0.068708803	0.13972558	-1.5940234	0.093765107	0.051429316	-1.0303249	0.10990588	0.050233178	NaN	NaN	NaN	-1.0875092	0.029977102	0.083106634	-1.468779	0.46709048	-0.10198674	-1.1313857	0.51790117	0.1887742	-1.4720716	0.46961497	0.023495008	-1.1232369	0.50207099	0.061892245	-1.3620285	0.87595274	-0.14337956	-1.3313796	0.8695042	0.22594887	-1.2565693	0.94753044	-0.089746135	-1.2505337	0.95141932	0.14983624	-1.4151229	1.0139178	0.03617118	-1.2094327	1.3945199	-0.13340771	-1.2476135	1.4145539	0.19353725	-1.2888708	1.4602721	0.029382708	-1.3299365	1.0375248	-0.20790466	-1.4273752	1.0977835	0.2867326	-1.0994867	0.89357604	-0.17956226	-1.3076442	0.8540964	0.31744017
4	0.012	-1.4664894	0.036678354	-0.00089625787	-0.87006656	0.097102152	0.11167176	-1.6142009	0.074843443	-0.04261817	-1.0208177	0.069189011	0.13950404	-1.5929811	0.09442382	0.051637181	-1.0139993	0.11064665	0.05007771	NaN	NaN	NaN	-1.0693639	0.029266505	0.082865765	-1.4657597	0.46669862	-0.10191959	-1.1256361	0.51625611	0.18793886	-1.4690888	0.4693615	0.023652328	-1.1163052	0.50074884	0.061351576	-1.3560961	0.87450548	-0.14333558	-1.3253868	0.86758131	0.22600978	-1.2504083	0.945949	-0.089627294	-1.2443999	0.949664	0.15000322	-1.4097142	1.0121507	0.037528863	-1.2034401	1.3929564	-0.13296259	-1.2421866	1.4129053	0.19394411	-1.2831025	1.4586203	0.02966004	-1.323097	1.0352982	-0.20838361	-1.4211097	1.0960787	0.28657777	-1.0918041	0.89283011	-0.17880651	-1.3016464	0.85230981	0.31780783
5	0.016	-1.4663757	0.036601606	-0.00088697474	-0.85395065	0.10119494	0.11216814	-1.6140242	0.075468958	-0.042101032	-1.0043792	0.069906684	0.13940444	-1.5922138	0.095001859	0.051983284	-0.99803495	0.11151964	0.049998271	NaN	NaN	NaN	-1.0512261	0.028561426	0.083196499	-1.462645	0.46632823	-0.10177674	-1.1193527	0.51466132	0.18724302	-1.4658287	0.46916004	0.023861302	-1.1094558	0.49937785	0.060786028	-1.3501319	0.87305989	-0.14325084	-1.3193016	0.86561298	0.22609038	-1.2442265	0.94437524	-0.089510096	-1.2381777	0.94791351	0.15015556	-1.4045057	1.0104052	0.039252617	-1.1973334	1.3913791	-0.13249266	-1.2367001	1.4112461	0.19434835	-1.2772957	1.4569642	0.029939032	-1.3161484	1.0332409	-0.20856409	-1.4149048	1.0943062	0.28637685	-1.0841468	0.89201114	-0.17803145	-1.2956236	0.85050733	0.31818952
6	0.02	-1.4662651	0.03652735	-0.0008797664	-0.83827963	0.10544551	0.11280648	-1.613842	0.076144348	-0.041594816	-0.98784204	0.07102099	0.13945574	-1.5915737	0.09553316	0.052391648	-0.98246467	0.11250224	0.049939708	NaN	NaN	NaN	-1.0334232	0.028026003	0.083697457	-1.4594323	0.46596726	-0.10157022	-1.1128972	0.5130888	0.18663491	-1.4624098	0.46897554	0.024105665	-1.1026521	0.4979678	0.060245855	-1.3441457	0.87162195	-0.14312714	-1.3131222	0.86362023	0.22618053	-1.238037	0.94281182	-0.089400865	-1.231844	0.94616001	0.15028621	-1.3990968	1.0086305	0.040718983	-1.191129	1.3897912	-0.13201225	-1.2311574	1.4095778	0.19475232	-1.2714507	1.4553117	0.03022858	-1.3091361	1.0312839	-0.20856113	-1.4088396	1.0923887	0.28614626	-1.0765238	0.89112952	-0.17724524	-1.2895932	0.84869251	0.31858163
7	0.024	-1.4661621	0.036455258	-0.0008784313	-0.82310905	0.10975569	0.11358287	-1.6136596	0.076868581	-0.041137875	-0.97095032	0.072663483	0.13968431	-1.5909777	0.096051913	0.052794258	-0.96730724	0.11356533	0.049841763	NaN	NaN	NaN	-1.0162559	0.02778872	0.083955534	-1.4561141	0.46560403	-0.10132732	-1.1062797	0.51155197	0.18614181	-1.458829	0.46876013	0.024366725	-1.0958715	0.49652535	0.0597603	-1.3381513	0.87018993	-0.14298727	-1.3068416	0.86162355	0.22626702	-1.2318565	0.94125986	-0.08931801	-1.2253155	0.94440028	0.15035641	-1.3932643	1.0067908	0.041598457	-1.1848861	1.3882013	-0.13153366	-1.2255734	1.40791	0.19515657	-1.2655636	1.4536716	0.030534474	-1.3020923	1.0293675	-0.20846614	-1.4028651	1.0903623	0.28589421	-1.0689434	0.890198	-0.17646501	-1.2835545	0.84687081	0.31898324
